<svg xmlns="http://www.w3.org/2000/svg" xmlns:xlink="http://www.w3.org/1999/xlink" version="1.1" viewBox="0 0 26670 10670"><path d="M0 0h26670v10670H0V0Z" fill="#fff"/><path d="M6000 4170Zm160-650v650h-80v-650h80Zm80 650Zm140-290v290h-70v-490h70v80c10-30 30-50 60-60 20-20 50-20 80-20 40 0 70 0 90 20 30 10 40 30 60 60l20 100v310h-80v-310l-30-90c-10-20-40-30-80-30l-60 20-40 40-20 80Zm380 290Zm410-380-70 20-20-30-30-30-50-10-80 20c-20 10-30 30-30 50l20 50 70 20 70 20 100 50c20 20 30 50 30 80s-10 50-30 80c-10 20-30 40-60 50l-100 20c-50 0-90-10-120-40-40-20-60-50-70-90l70-20c10 30 20 50 40 60l80 20 80-20c20-20 30-30 30-50l-20-50-50-20-80-20c-50-10-80-30-100-50s-30-50-30-80l20-80 70-50 90-10c40 0 80 10 110 30s50 50 60 80Zm50 380Zm70 180v-670h70v80h10l20-30 50-40 70-10a190 190 0 01 180 110c20 40 30 80 30 140 0 50-10 90-30 130s-40 70-70 90-70 30-110 30l-70-20-50-30-20-40h-10v260h-70Zm70-430 20 100 50 70 70 20 80-20 50-70 10-100-10-90c-10-30-30-50-50-60-20-20-50-30-80-30a120 120 0 00-120 90l-20 90Zm400 250Zm70 0v-490h80v490h-80Zm40-570-40-10-10-40 10-40 40-10 40 10 10 40-10 40-40 10Zm100 570Zm70 0v-490h70v80h10c10-30 20-50 50-60 20-20 50-30 80-30a820 820 0 01 30 10v70a220 220 0 00-40 0l-60 10-50 40-10 60v310h-80Zm260 0Zm220 10-90-20-60-50-20-80 20-70 40-40 60-20a740 740 0 01 140-20l40-10 10-30-20-70c-20-20-40-30-80-30l-80 20-50 50-70-20a170 170 0 01 120-100 290 290 0 01 130-10l60 20c20 10 40 30 50 60l20 90v320h-80v-70l-30 30-40 40-70 10Zm10-70c30 0 50 0 70-20a120 120 0 00 60-100v-70l-20 10a350 350 0 01-70 20 1980 1980 0 00-90 10l-40 30-20 40c0 30 10 50 30 60l80 20Zm280 60Zm260 10c-40 0-80-10-120-40l-70-80c-20-40-30-80-30-130s10-100 30-130c20-40 40-70 70-90l120-30 90 10 70 60c20 20 30 50 30 80h-70l-40-60c-20-20-50-30-80-30s-50 10-80 30l-50 60-10 90 10 100 50 70 80 20 50-10a110 110 0 00 70-70h70a170 170 0 01-100 130l-90 20Zm230-10Zm70-490h70v520l-10 80-50 50-70 20h-20v-70h10c30 0 40-10 50-20 20-10 20-30 20-60v-520Zm40-80-40-10-20-40 20-40 40-10 30 10 20 40-20 40-30 10Zm100 570Zm210 10-80-20-60-50-20-80 10-70 50-40 60-20a740 740 0 01 140-20l40-10 10-30-20-70c-20-20-50-30-80-30l-80 20-50 50-70-20a170 170 0 01 120-100 290 290 0 01 130-10l60 20 50 60 20 90v320h-80v-70l-30 30-40 40-80 10Zm20-70c20 0 50 0 70-20a120 120 0 00 60-100v-70l-20 10a350 350 0 01-80 20 1980 1980 0 00-80 10l-40 30-20 40c0 30 10 50 30 60l80 20Zm520 60Zm130 0c-20 0-30 0-40-20l-20-40 20-40 40-10 40 10 10 40v30l-30 20-20 10Zm0-360-40-10-20-40 20-50 40-10 40 10 10 50v20l-30 20-20 10Zm370 360Zm410-380-70 20-20-30-30-30-50-10-80 20c-20 10-20 30-20 50s0 40 20 50l60 20 70 20 100 50c20 20 30 50 30 80l-20 80-70 50-100 20c-50 0-90-10-120-40-40-20-60-50-60-90l70-20c0 30 20 50 30 60l80 20 80-20c20-20 30-30 30-50s0-40-20-50l-50-20-80-20c-50-10-80-30-100-50s-30-50-30-80l20-80 70-50 90-10c50 0 80 10 110 30s50 50 60 80Zm50 380Zm50-140v-60l290-450h50v100h-40l-210 340h380v70h-470Zm310 140v-650h70v650h-70Zm210 0Zm410 0v70h-410v-70h410Zm0 0Zm70 0v-650h80v240l30-30 40-40 70-10a190 190 0 01 190 110l20 140-20 130c-20 40-50 70-80 90s-60 30-100 30l-80-20-40-30-30-40v80h-80Zm80-250 10 100 50 70 80 20 70-20 50-70 20-100-20-90c-10-30-20-50-50-60-20-20-40-30-70-30a120 120 0 00-130 90l-10 90Zm400 250Zm70 0v-490h70v490h-70Zm30-570-30-10-20-40 20-40 30-10 40 10 20 40-20 40-40 10Zm110 570Zm260 190-90-20a200 200 0 01-110-80l60-40 30 30 40 30 70 10c40 0 70-10 100-30 20-10 40-40 40-80v-100h-10l-20 30-50 30-70 20c-40 0-70-10-110-30-30-20-50-40-70-80-20-30-30-80-30-130s10-90 30-130 40-60 70-80 70-30 110-30l80 10 40 40 20 30h10v-80h70v500c0 40-10 80-30 100-20 30-40 50-70 60l-110 20Zm0-270c30 0 50 0 80-20 20-10 30-30 40-60l20-90-20-90c-10-30-20-50-40-60-20-20-50-30-80-30a130 130 0 00-130 90l-10 90 10 90c10 30 30 50 50 60l80 20Zm280 80Zm120 0c-10 0-30 0-40-20l-10-40 10-40 40-10 40 10 20 40-10 30-20 20-30 10Zm120 0Zm70-490h80v520l-20 80-40 50-80 20h-20v-70h20l50-20 10-60v-520Zm40-80-40-10-10-40 10-40 40-10 40 10 10 40-10 40-40 10Zm110 570Zm60 180v-670h80v80l30-30 40-40 70-10a190 190 0 01 190 110l20 140-20 130c-20 40-50 70-80 90s-60 30-100 30l-80-20-40-30-30-40v260h-80Zm80-430 10 100 50 70 80 20 70-20c30-20 40-40 50-70l20-100-20-90c-10-30-20-50-50-60-20-20-40-30-70-30a120 120 0 00-130 90l-10 90Zm400 250Zm260 190-90-20a200 200 0 01-110-80l60-40 30 30 40 30 70 10c40 0 70-10 100-30 20-10 40-40 40-80v-100h-10l-20 30-50 30-70 20c-40 0-80-10-110-30s-50-40-70-80c-20-30-30-80-30-130s10-90 30-130 40-60 70-80 70-30 110-30l80 10 40 40 20 30h10v-80h70v500c0 40-10 80-30 100-20 30-40 50-70 60l-110 20Zm0-270c30 0 50 0 70-20 30-10 40-30 50-60l20-90-20-90c-10-30-20-50-40-60-30-20-50-30-80-30a130 130 0 00-130 90l-10 90 10 90c10 30 30 50 50 60l80 20Zm530 80Zm90-330a680 680 0 01 120-400h70l-40 80a750 750 0 00-60 210 820 820 0 00 100 520h-70a690 690 0 01-120-410Zm230 330Zm300-650v650h-80v-570h-10l-150 110v-80l160-110h80Zm110 650Zm70 0v-60l210-230a1480 1480 0 00 100-130l10-60a100 100 0 00-60-100l-60-10c-20 0-50 0-60 20l-50 40-10 60h-80c0-40 10-70 30-100s40-50 70-60c30-20 70-30 100-30 40 0 70 10 100 30 30 10 60 30 70 60l30 90-20 70-40 80-90 100-140 150v10h300v70h-410Zm470 0Zm280 10c-50 0-90-10-120-30-30-10-60-30-80-60l-20-100a170 170 0 01 60-130l60-30c-30-10-50-30-70-60-20-20-30-50-30-90 0-30 10-60 30-80 10-30 40-50 70-70l100-20 100 20 70 70 20 80c0 40-10 70-30 90-10 30-40 50-70 60l60 30 50 60 20 70c0 40-10 70-30 100s-50 50-80 60c-30 20-70 30-110 30Zm0-70 70-20 50-40 20-60-20-60-50-50-70-10-80 10-50 50-20 60 20 60 50 40 80 20Zm0-310 60-10a110 110 0 00 60-100l-20-60-40-40-60-10-70 10-40 40-10 60 10 60 40 40 70 10Zm270 370Zm280 10c-50 0-90-20-120-40-40-30-60-70-80-120s-30-110-30-180 10-130 30-180 40-80 80-110c30-30 70-40 120-40s90 10 120 40 60 60 80 110l20 180-20 180c-20 50-50 90-80 120-30 20-70 40-120 40Zm0-70c50 0 80-30 110-70 20-50 40-110 40-200l-20-140c-10-40-30-70-50-90s-50-30-80-30c-50 0-90 20-110 70-30 40-40 110-40 190 0 60 0 110 20 150 10 40 30 70 50 90s50 30 80 30Zm280 60Zm440-120-350-360 40-40 360 350-50 50Zm-310 0-40-50 350-350 50 40-360 360Zm450 120Zm300-650v650h-80v-570h-10l-150 110v-80l160-110h80Zm110 650Zm280 10c-40 0-90-20-120-40-30-30-60-70-80-120l-20-180 20-180c20-50 50-80 80-110 40-30 80-40 120-40 50 0 90 10 120 40 40 30 60 60 80 110s30 110 30 180-10 130-30 180-40 90-80 120c-30 20-70 40-120 40Zm0-70c50 0 90-30 110-70 30-50 40-110 40-200 0-50 0-100-20-140-10-40-30-70-50-90s-50-30-80-30c-40 0-80 20-110 70-20 40-40 110-40 190l20 150c10 40 30 70 50 90s50 30 80 30Zm280 60Zm70 0v-60l210-230a1480 1480 0 00 100-130l10-60a100 100 0 00-60-100l-60-10c-30 0-50 0-70 20l-40 40-20 60h-70c0-40 10-70 30-100 10-30 40-50 70-60 30-20 60-30 100-30s70 10 100 30c30 10 50 30 70 60s20 60 20 90l-10 70-40 80-90 100-150 150v10h310v70h-410Zm450 0Zm60-140v-60l280-450h50v100h-30l-220 340h380v70h-460Zm300 140v-650h80v650h-80Zm220 0Zm220-330a740 740 0 01-120 410h-60l40-80a730 730 0 00 60-210 790 790 0 00-100-520h60a680 680 0 01 120 400ZM7810 5250Zm200 0-180-650h80l130 530h10l140-530h90l130 530h10l140-530h80l-180 650h-80l-140-520h-10l-140 520h-80Zm640 0Zm70 0v-480h80v480h-80Zm40-570-40-10-10-40 10-30 40-20 40 20 10 30-10 40-40 10Zm110 570Zm250 10a190 190 0 01-180-120c-20-40-30-80-30-130s10-100 30-130c20-40 40-70 70-90s70-30 110-30l70 10 50 40 20 30v-240h80v650h-70v-70h-10l-20 30-50 30-70 20Zm10-70c30 0 50 0 70-20l50-70 20-90-20-100-50-60c-20-20-40-20-70-20s-60 0-80 20l-50 70-10 90 10 90 50 70 80 20Zm290 60Zm260 10c-40 0-80-10-110-30s-60-50-80-90-30-80-30-130 10-90 30-130 50-70 80-90 70-30 110-30c50 0 90 10 120 30s60 50 80 90l20 130-20 130a210 210 0 01-190 120Zm0-70 90-20 40-70 20-90-20-90-40-70c-30-20-50-20-90-20-30 0-60 0-80 20l-50 70-10 90 10 90 50 70 80 20Zm270 60Zm140-180-10-90h20l210-210h90l-220 220h-10l-80 80Zm-70 180v-650h70v650h-70Zm300 0-180-240 50-50 230 290h-100Zm360 0Zm40-440v-60l10-60 30-50 40-50 40 30-30 60-10 70v60h-80Zm170 0v-60l10-60 20-50 50-50 40 30-40 60-10 70v60h-70Zm130 440Zm250 10a190 190 0 01-180-120c-20-40-20-80-20-130s0-100 20-130c20-40 40-70 70-90 40-20 70-30 110-30l80 10 40 40 20 30h10v-240h70v650h-70v-70h-10l-20 30-40 30-80 20Zm10-70c30 0 60 0 80-20l40-70c20-20 20-60 20-90 0-40 0-70-20-100-10-20-20-50-40-60-20-20-50-20-80-20s-60 0-80 20l-40 70-20 90 20 90 40 70 80 20Zm290 60Zm380-200v-280h70v480h-70v-80h-10l-50 60-90 30-80-20-60-60-20-110v-300h80v300l20 80c20 20 50 30 80 30a130 130 0 00 130-130Zm140 200Zm50 0v-60l280-350v-10h-270v-60h360v50l-260 360h270v70h-380Zm190-570-40-10-10-40 10-30 40-20 40 20 10 30-10 40-40 10Zm240 570Zm120 180a160 160 0 01-60-10l20-60h50l40-20 30-50 10-40-180-480h80l130 380h10l130-380h80l-200 550c-10 30-20 50-40 60l-40 40-60 10Zm410-180Zm130-650v60l-10 60a230 230 0 01-70 100l-40-30 30-60 20-70v-60h70Zm160 0v60l-10 60a230 230 0 01-70 100l-40-30 40-60 10-70v-60h70Zm290 650Zm100-380v-70h390v70h-390Zm0 180v-60h390v60h-390Zm740 200Zm290 10-120-20-70-60-30-90h80c0 20 0 40 20 50l50 40 60 10 80-20c20 0 40-20 50-40l20-60-20-60-50-40-90-20h-50v-70h50l70-10 50-40 10-60-10-60-40-30-60-20-70 20c-20 0-30 10-40 30-20 20-20 30-20 60h-80c0-40 10-70 30-90 20-30 40-50 80-60a240 240 0 01 200 0 170 170 0 01 90 150c0 30-10 70-30 90-20 30-40 40-80 50v10c40 10 80 20 100 50s30 60 30 100l-20 100c-20 30-50 50-80 60-40 20-70 30-110 30Zm530-10Zm130-180v-90h20l210-210h90l-220 220h-10l-90 80Zm-70 180v-650h80v650h-80Zm310 0-190-240 60-50 230 290h-100Zm90 0Zm270 10c-50 0-90-10-120-30s-60-50-80-90-20-80-20-130 0-90 20-130 50-70 80-90 70-30 120-30c40 0 80 10 110 30s60 50 80 90 20 80 20 130 0 90-20 130-50 70-80 90-70 30-110 30Zm0-70 80-20 40-70c20-30 20-60 20-90s0-60-20-90l-40-70c-20-20-50-20-80-20-40 0-70 0-90 20l-40 70-20 90 20 90 40 70 90 20Zm260 60Zm140-650v650h-70v-650h70Zm70 650Zm370-200v-280h80v480h-80v-80l-50 60-90 30-80-20-60-60-20-110v-300h70v300c0 30 10 60 30 80s50 30 80 30a130 130 0 00 120-130Zm150 200Zm70 0v-480h70v70l50-60 80-20 80 20c30 10 40 40 50 60h10l60-60 80-20c50 0 80 10 110 40s40 70 40 130v320h-70v-320c0-40-10-70-30-80-20-20-40-20-70-20s-60 10-80 30-30 40-30 70v320h-70v-330c0-30-10-50-30-70s-40-20-70-20l-50 10-40 40-20 70v300h-70Zm700 0Zm140-290v290h-70v-480h70v70h10l50-60 90-20 80 20c30 10 50 30 60 60 20 30 20 60 20 100v310h-70v-300c0-40-10-70-30-90s-50-30-80-30l-70 10-40 50-20 70Zm360 290Zm120 180a160 160 0 01-60-10l20-60h50l40-20 30-50 10-40-180-480h80l140 380 140-380h80l-210 550-30 60-50 40-60 10ZM7860 6330Zm190 0-170-640h80l130 520h10l140-520h80l140 520h10l130-520h80l-170 640h-90l-140-510-150 510h-80Zm650 0Zm70 0v-480h70v480h-70Zm40-560-40-20-20-30 20-40 40-10 30 10c20 10 20 20 20 40 0 10 0 20-20 30l-30 20Zm100 560Zm250 10a190 190 0 01-180-110l-20-140 20-130c20-40 50-70 80-90s60-30 100-30l80 20 40 30 30 40v-240h80v640h-80v-70l-30 30-40 40-80 10Zm10-60c30 0 60-10 80-30 20-10 40-30 50-60l10-100-10-90-50-70-80-20-80 20-40 70-20 90 20 90c10 30 20 60 50 70 20 20 40 30 70 30Zm290 50Zm270 10-120-30c-30-20-50-50-70-90-20-30-30-80-30-130s10-90 30-130 40-70 70-90l120-30c40 0 80 10 110 30 40 20 60 50 80 90s30 80 30 130-10 100-30 130c-20 40-40 70-80 90-30 20-70 30-110 30Zm0-60c30 0 60-10 80-30l50-70 10-90-10-90-50-70-80-20-80 20-50 70-20 90 20 90 50 70c20 20 50 30 80 30Zm260 50Zm140-170v-100h20l210-210h90l-230 230-90 80Zm-70 170v-640h80v640h-80Zm310 0-190-240 50-50 240 290h-100Zm360 0Zm40-440v-60l10-50 30-60 40-50 40 40-30 60-20 60v60h-70Zm160 0v-60l10-50 30-60 40-50 40 40-30 60-20 60v60h-70Zm140 440Zm70 0v-480h70v70l50-60 80-20 80 20 50 60h10l50-60 90-20c50 0 80 20 110 40 30 30 40 70 40 130v320h-70v-320c0-40-10-60-30-80l-70-20c-40 0-60 10-80 30s-30 50-30 80v310h-70v-330c0-30-10-50-30-70l-70-20-50 10-50 50-10 60v300h-70Zm700 0Zm210 10-80-10c-30-10-50-30-60-50-20-30-30-50-30-80l20-70 50-40 60-20a740 740 0 01 130-30l50-10 10-20c0-30-10-60-30-80l-70-20-90 20-40 50-70-20a170 170 0 01 120-110 290 290 0 01 130 0l60 20 40 50c20 20 20 60 20 90v320h-70v-60h-10l-20 30-50 30-70 10Zm10-60 80-20a120 120 0 00 60-100v-70l-20 10a350 350 0 01-80 10 1970 1970 0 00-90 20l-40 20-10 50c0 30 10 40 30 60l70 20Zm280 50Zm210-400v50l-210 90v-60l210-80Zm-70-240v640h-70v-640h70Zm70 640Zm120 190a160 160 0 01-60-10l20-70 50 10 40-20 30-60 10-30-180-490h80l140 380 140-380h80l-210 550-30 70c-20 10-30 30-50 30l-60 20Zm410-190Zm130-640v50l-10 60a230 230 0 01-70 100l-40-30 40-60 10-70v-50h70Zm160 0v50l-10 60a230 230 0 01-70 100l-40-30 40-60 10-70v-50h70Zm300 640Zm90-380v-70h390v70h-390Zm0 190v-70h390v70h-390Zm740 190Zm70 0v-50l210-240a1480 1480 0 00 100-130l10-50a100 100 0 00-60-100l-60-10-70 10-40 40-10 70h-80c0-40 10-70 30-100 10-30 40-50 70-70l100-20 100 20 70 70c20 20 30 50 30 90l-20 70-40 70-90 100-140 160h300v70h-410Zm720 0Zm140-170v-100h10l210-210h100l-230 230h-10l-80 80Zm-70 170v-640h70v640h-70Zm310 0-190-240 50-50 230 290h-90Zm80 0Zm270 10c-50 0-80-10-120-30-30-20-60-50-70-90-20-30-30-80-30-130s10-90 30-130c10-40 40-70 70-90a240 240 0 01 230 0c40 20 60 50 80 90s30 80 30 130-10 100-30 130c-20 40-40 70-80 90-30 20-70 30-110 30Zm0-60c30 0 60-10 80-30l50-70 10-90-10-90-50-70-80-20-80 20-50 70-20 90 20 90 50 70c20 20 50 30 80 30Zm260 50Zm150-640v640h-80v-640h80Zm60 640Zm380-190v-290h70v480h-70v-80h-10c-10 30-30 50-50 60-20 20-50 30-90 30l-80-20-60-60-20-100v-310h80v300c0 40 10 70 30 90s40 30 70 30a130 130 0 00 130-130Zm140 190Zm70 0v-480h70v70h10c10-20 20-40 50-60l80-20 80 20 50 60 60-60 90-20c40 0 80 20 100 40 30 30 50 70 50 130v320h-80v-320c0-40-10-60-30-80l-70-20c-30 0-60 10-80 30s-20 50-20 80v310h-80v-330c0-30-10-50-30-70l-70-20-50 10-40 50-20 60v300h-70Zm700 0Zm150-290v290h-80v-480h70v70h10l50-60 90-20 90 20 60 60 20 110v300h-80v-300c0-40-10-70-30-90s-50-30-80-30l-60 10-50 50-10 70Zm360 290Zm110 190a160 160 0 01-50-10l20-70 50 10 30-20 30-60 20-30-180-490h80l130 380h10l130-380h80l-200 550-40 70c-10 10-30 30-50 30l-60 20ZM5040 7420Zm620-330c0 70-10 130-30 180-30 50-60 90-110 120-40 20-90 40-140 40a270 270 0 01-250-160c-30-50-40-110-40-180 0-60 10-120 40-170 20-50 60-90 100-120s90-40 150-40a270 270 0 01 250 160c20 50 30 110 30 170Zm-70 0c0-50-10-100-30-140s-40-70-80-90a200 200 0 00-210 0c-30 20-60 50-70 90-20 40-30 90-30 140 0 60 10 110 30 150 10 30 40 60 70 80s70 30 110 30a200 200 0 00 180-110c20-40 30-90 30-150Zm130 330Zm260 190-90-20a200 200 0 01-110-80l60-40 30 30 40 30 70 10c40 0 70-10 100-30 20-10 40-40 40-80v-100h-10l-20 30-50 30-70 20c-40 0-80-10-110-30s-50-40-70-80c-20-30-30-80-30-130s10-90 30-130 40-60 70-80 70-30 110-30l70 10 50 40 20 30h10v-80h70v500c0 40-10 80-30 100-20 30-40 50-70 60l-110 20Zm0-270c30 0 50 0 70-20 20-10 40-30 50-60l20-90-20-90c-10-30-30-50-50-60-20-20-40-30-70-30a130 130 0 00-130 90l-10 90 10 90c10 30 30 50 50 60l80 20Zm280 80Zm70 0v-490h70v80c10-30 30-50 50-60 20-20 50-30 80-30a820 820 0 01 40 10v70a220 220 0 00-50 0l-60 10-40 40-20 60v310h-70Zm260 0Zm210 10-80-20c-30-10-50-30-60-50-20-20-30-50-30-80l20-70 40-40 70-20a740 740 0 01 130-20l40-10 20-30c0-30-10-60-30-70-10-20-40-30-70-30l-90 20-40 50-70-20a170 170 0 01 120-100 290 290 0 01 130-10l60 20 40 60c20 20 20 50 20 90v320h-70v-70h-10l-20 30-50 40-70 10Zm10-70c30 0 60 0 80-20a120 120 0 00 60-100v-70l-20 10a350 350 0 01-80 20 1970 1970 0 00-90 10l-40 30-10 40c0 30 10 50 30 60l70 20Zm280 60Zm140-300v300h-70v-490h70v80h10c10-30 20-50 50-60 20-20 50-20 90-20 30 0 60 0 80 20 30 10 50 30 60 60 20 20 20 60 20 100v310h-70v-310l-30-90c-20-20-50-30-80-30l-70 20-40 40-20 70Zm380 300Zm70 0v-490h70v490h-70Zm40-570-40-10-20-40 20-40 40-10 30 10 20 40-20 40-30 10Zm100 570Zm270 10c-50 0-90-10-120-40l-80-80-20-130 20-130c20-40 50-70 80-90s70-30 110-30l100 10c20 20 50 30 60 60l40 80h-80c0-30-20-40-40-60s-40-30-70-30-60 10-80 30c-20 10-40 30-50 60l-20 90 20 100 50 70 80 20 50-10a110 110 0 00 60-70h80a170 170 0 01-100 130l-90 20Zm230-10Zm50 0v-60l280-350v-10h-270v-70h360v60l-260 350v10h270v70h-380Zm410 0Zm280 10c-50 0-90-10-130-30l-70-90c-20-40-30-80-30-130s10-100 30-130c20-40 40-70 70-90 40-20 70-30 120-30l70 10a190 190 0 01 120 110l20 120v30h-380v-60h300c0-30 0-60-20-80a120 120 0 00-110-70l-80 20-50 60-20 80v40l20 90c20 30 30 50 60 60l80 20 50-10 40-20 30-50 70 20-40 70-70 40-80 20Zm240-10Zm140-300v300h-70v-490h70v80h10c10-30 30-50 50-60 20-20 50-20 90-20 30 0 60 0 90 20 20 10 40 30 50 60 20 20 20 60 20 100v310h-70v-310l-30-90c-20-20-50-30-80-30l-70 20-40 40-20 70Zm380 300Zm70 0v-490h70v490h-70Zm40-570-40-10-20-40 20-40 40-10 30 10c20 10 20 30 20 40s0 30-20 40l-30 10Zm100 570Zm270 10-120-30c-30-30-60-50-70-90-20-40-30-80-30-130s10-100 30-130c10-40 40-70 70-90s70-30 120-30l70 10a190 190 0 01 120 110l10 120v30h-370v-60h300l-20-80a120 120 0 00-110-70l-80 20-50 60-20 80v40l20 90c10 30 30 50 50 60l80 20 60-10 40-20 30-50 70 20-40 70-70 40-90 20Zm250-10Zm120 0c-10 0-30 0-40-20l-10-40 10-40 40-10 40 10 20 40-10 30-20 20-30 10Zm0-360-40-10-10-40 10-50 40-10 40 10 20 50-10 20-20 20-30 10Zm370 360Zm70 0v-60l220-230a1480 1480 0 00 90-130l10-60a100 100 0 00-60-100l-60-10c-20 0-50 0-60 20l-50 40-10 60h-80c0-40 10-70 30-100s40-50 70-60c30-20 70-30 100-30 40 0 80 10 100 30 30 10 60 30 70 60l30 90-10 70-50 80-90 100-140 150v10h300v70h-410Zm460 0Zm50-140v-60l280-450h50v100h-30l-210 340h380v70h-470Zm310 140v-650h70v650h-70Zm460 0Zm50 0v-60l280-350v-10h-270v-70h360v60l-260 350v10h270v70h-380Zm430 0Zm140-300v300h-70v-490h70v80h10c10-30 30-50 50-60 20-20 50-20 90-20 30 0 60 0 80 20 30 10 50 30 60 60 20 20 20 60 20 100v310h-70v-310l-30-90c-20-20-50-30-80-30l-70 20-40 40-20 70Zm380 300Zm210 10-80-20c-30-10-50-30-60-50-20-20-20-50-20-80l10-70 50-40 60-20a740 740 0 01 140-20l40-10 10-30c0-30-10-60-30-70-10-20-40-30-70-30l-90 20-40 50-70-20a170 170 0 01 120-100 290 290 0 01 130-10l60 20c20 10 30 30 40 60 20 20 20 50 20 90v320h-70v-70h-10l-20 30-50 40-70 10Zm10-70c30 0 60 0 80-20a120 120 0 00 60-100v-70l-20 10a350 350 0 01-80 20 1980 1980 0 00-80 10l-40 30-20 40c0 30 10 50 30 60l70 20Zm280 60Zm140-180v-90h10l210-220h100l-230 230h-10l-80 80Zm-70 180v-650h70v650h-70Zm310 0-190-240 50-60 230 300h-90Zm100 0Zm70 0v-490h80v490h-80Zm40-570-40-10-10-40 10-40 40-10 40 10 10 40-10 40-40 10Zm110 570Zm170-90v30l-20 80a1460 1460 0 01-40 130h-60a18980 18980 0 00 40-210v-30h80Zm320 90Zm180 0-150-490h80l110 370 110-370h80l100 370 110-370h80l-150 490h-70l-110-380h-10l-100 380h-80Zm550 0Zm110 180a160 160 0 01-50-10l20-70 50 10 30-20 30-50 20-40-180-490h80l130 390h10l130-390h80l-200 560-40 60-50 40-60 10Zm380-180Zm410-380-60 20-20-30-40-30-50-10-70 20c-20 10-30 30-30 50s0 40 20 50l60 20 70 20c50 10 80 30 100 50s30 50 30 80l-20 80-70 50-100 20c-50 0-90-10-120-40-30-20-50-50-60-90l70-20c10 30 20 50 40 60l70 20 80-20c20-20 40-30 40-50l-20-50-60-20-80-20-100-50c-20-20-30-50-30-80s10-60 30-80l60-50 90-10c50 0 90 10 110 30 30 20 50 50 60 80Zm60 380Zm260 10c-40 0-80-10-110-30-40-30-60-50-80-90s-30-80-30-130 10-100 30-140c20-30 40-60 80-80 30-20 70-30 110-30l120 30 70 80a320 320 0 01 0 270l-70 90-120 30Zm0-70c30 0 60-10 80-30l50-60 20-90-20-90-50-70c-20-20-50-30-80-30s-60 10-80 30l-50 70-10 90 10 90 50 60c20 20 50 30 80 30Zm270 60Zm130-180v-90h20l210-220h90l-220 230h-10l-90 80Zm-70 180v-650h80v650h-80Zm310 0-190-240 60-60 230 300h-100Zm90 0Zm270 10c-50 0-90-10-120-30-30-30-60-50-80-90s-20-80-20-130 0-100 20-140l80-80c30-20 70-30 120-30 40 0 80 10 110 30l80 80c20 40 20 90 20 140s0 90-20 130-50 60-80 90c-30 20-70 30-110 30Zm0-70c30 0 60-10 80-30 20-10 30-40 40-60 20-30 20-60 20-90 0-40 0-70-20-90l-40-70c-20-20-50-30-80-30-40 0-70 10-90 30l-40 70-20 90 20 90c10 20 20 50 40 60 20 20 50 30 90 30Zm260 60Zm410-380-60 20-20-30-40-30-50-10-70 20c-20 10-30 30-30 50s0 40 20 50l60 20 70 20c50 10 80 30 100 50s30 50 30 80l-20 80-70 50-100 20c-50 0-90-10-120-40-30-20-50-50-60-90l70-20c0 30 20 50 40 60l70 20 80-20c20-20 30-30 30-50l-10-50-60-20-80-20-100-50c-20-20-30-50-30-80s10-60 30-80l60-50 90-10c50 0 90 10 110 30 30 20 50 50 60 80Zm-200-170 70-150h90l-100 150h-60Zm250 550Zm270 10c-50 0-80-10-120-40-30-20-60-50-70-80-20-40-30-80-30-130s10-100 30-130c20-40 40-70 70-90 40-20 70-30 120-30l90 10 70 60c20 20 30 50 30 80h-70l-40-60c-20-20-50-30-80-30s-50 10-80 30c-20 10-40 30-50 60l-20 90 20 100 50 70 80 20 50-10a110 110 0 00 70-70h70a170 170 0 01-100 130l-90 20Zm-40-560 80-150h90l-100 150h-70Zm520 550Zm270 10c-40 0-70-10-100-30-30-10-50-30-70-60-20-20-30-50-30-80h80c0 20 10 50 40 70 20 20 50 30 80 30a130 130 0 00 120-70l20-80-20-70a140 140 0 00-120-80 200 200 0 00-120 40l-70-10 40-320h330v70h-270l-20 190h10l50-30 60-10a200 200 0 01 180 110l20 110-20 110a200 200 0 01-190 110Zm270-10Zm280 10c-50 0-90-20-120-40-40-30-60-70-80-120s-20-110-20-180 0-130 20-180 50-80 80-110 70-40 120-40 90 10 120 40 60 60 80 110 20 110 20 180 0 130-20 180-50 90-80 120c-30 20-70 40-120 40Zm0-70c50 0 80-30 110-70 30-50 40-110 40-200l-20-140c-10-40-30-70-50-90s-50-30-80-30c-50 0-80 20-110 70-30 40-40 110-40 190l20 150c10 40 30 70 50 90s50 30 80 30Zm280 60Zm70 180v-670h70v80h10l20-30 40-40 80-10a190 190 0 01 180 110c20 40 20 80 20 140 0 50 0 90-20 130s-40 70-70 90c-40 20-70 30-110 30l-80-20-40-30-20-40h-10v260h-70Zm70-430c0 40 0 70 20 100l40 70 80 20 80-20 40-70 20-100-20-90c-10-30-20-50-40-60-20-20-50-30-80-30a120 120 0 00-130 90l-10 90Zm380 250Zm120-490 120 200 120-200h80l-160 240 160 250h-80l-120-190-120 190h-80l150-250-150-240h80ZM10760 4340h2310v60h-2310Zm2620 0h300v60h-300Zm470 0h110v60h-110Zm310 0h440v60h-440Zm760 0h5720v60h-5720Z"/><use xlink:href="#font_0_27" transform="matrix(88.88889 0 0-88.88889 6000 4170)"/><use xlink:href="#font_0_37" transform="matrix(88.88889 0 0-88.88889 6240 4170)"/><use xlink:href="#font_0_31" transform="matrix(88.88889 0 0-88.88889 6760 4170)"/><use xlink:href="#font_0_2f" transform="matrix(88.88889 0 0-88.88889 7220 4170)"/><use xlink:href="#font_0_2c" transform="matrix(88.88889 0 0-88.88889 7760 4170)"/><use xlink:href="#font_0_2b" transform="matrix(88.88889 0 0-88.88889 7970 4170)"/><use xlink:href="#font_0_33" transform="matrix(88.88889 0 0-88.88889 8300 4170)"/><use xlink:href="#font_0_2a" transform="matrix(88.88889 0 0-88.88889 8800 4170)"/><use xlink:href="#font_0_22" transform="matrix(88.88889 0 0-88.88889 9300 4170)"/><use xlink:href="#font_0_33" transform="matrix(88.88889 0 0-88.88889 9510 4170)"/><use xlink:href="#font_0_d" transform="matrix(88.88889 0 0-88.88889 10010 4170)"/><use xlink:href="#font_0_21" transform="matrix(88.88889 0 0-88.88889 10260 4170)"/><use xlink:href="#font_0_d" transform="matrix(88.88889 0 0-88.88889 10500 4170)"/><use xlink:href="#font_0_30" transform="matrix(88.88889 0 0-88.88889 10750 4170)"/><use xlink:href="#font_0_35" transform="matrix(88.88889 0 0-88.88889 11220 4170)"/><use xlink:href="#font_0_26" transform="matrix(88.88889 0 0-88.88889 11790 4170)"/><use xlink:href="#font_0_32" transform="matrix(88.88889 0 0-88.88889 12190 4170)"/><use xlink:href="#font_0_2d" transform="matrix(88.88889 0 0-88.88889 12740 4170)"/><use xlink:href="#font_0_14" transform="matrix(88.88889 0 0-88.88889 12950 4170)"/><use xlink:href="#font_0_1a" transform="matrix(88.88889 0 0-88.88889 13490 4170)"/><use xlink:href="#font_0_23" transform="matrix(88.88889 0 0-88.88889 13740 4170)"/><use xlink:href="#font_0_2e" transform="matrix(88.88889 0 0-88.88889 13950 4170)"/><use xlink:href="#font_0_14" transform="matrix(88.88889 0 0-88.88889 14490 4170)"/><use xlink:href="#font_0_c" transform="matrix(88.88889 0 0-88.88889 15030 4170)"/><use xlink:href="#font_0_e" transform="matrix(88.88889 0 0-88.88889 15280 4170)"/><use xlink:href="#font_0_24" transform="matrix(88.88889 0 0-88.88889 15600 4170)"/><use xlink:href="#font_0_1b" transform="matrix(88.88889 0 0-88.88889 16020 4170)"/><use xlink:href="#font_0_13" transform="matrix(88.88889 0 0-88.88889 16550 4170)"/><use xlink:href="#font_0_19" transform="matrix(88.88889 0 0-88.88889 17100 4170)"/><use xlink:href="#font_0_28" transform="matrix(88.88889 0 0-88.88889 17660 4170)"/><use xlink:href="#font_0_24" transform="matrix(88.88889 0 0-88.88889 18240 4170)"/><use xlink:href="#font_0_19" transform="matrix(88.88889 0 0-88.88889 18650 4170)"/><use xlink:href="#font_0_1b" transform="matrix(88.88889 0 0-88.88889 19210 4170)"/><use xlink:href="#font_0_35" transform="matrix(88.88889 0 0-88.88889 19730 4170)"/><use xlink:href="#font_0_17" transform="matrix(88.88889 0 0-88.88889 20300 4170)"/><use xlink:href="#font_0_25" transform="matrix(88.88889 0 0-88.88889 7810 5250)"/><use xlink:href="#font_0_2c" transform="matrix(88.88889 0 0-88.88889 8650 5250)"/><use xlink:href="#font_0_16" transform="matrix(88.88889 0 0-88.88889 8860 5250)"/><use xlink:href="#font_0_12" transform="matrix(88.88889 0 0-88.88889 9420 5250)"/><use xlink:href="#font_0_1e" transform="matrix(88.88889 0 0-88.88889 9950 5250)"/><use xlink:href="#font_0_d" transform="matrix(88.88889 0 0-88.88889 10430 5250)"/><use xlink:href="#font_0_11" transform="matrix(88.88889 0 0-88.88889 10680 5250)"/><use xlink:href="#font_0_16" transform="matrix(88.88889 0 0-88.88889 11020 5250)"/><use xlink:href="#font_0_f" transform="matrix(88.88889 0 0-88.88889 11570 5250)"/><use xlink:href="#font_0_20" transform="matrix(88.88889 0 0-88.88889 12080 5250)"/><use xlink:href="#font_0_a" transform="matrix(88.88889 0 0-88.88889 12560 5250)"/><use xlink:href="#font_0_1d" transform="matrix(88.88889 0 0-88.88889 13090 5250)"/><use xlink:href="#font_0_d" transform="matrix(88.88889 0 0-88.88889 13430 5250)"/><use xlink:href="#font_0_1f" transform="matrix(88.88889 0 0-88.88889 13680 5250)"/><use xlink:href="#font_0_d" transform="matrix(88.88889 0 0-88.88889 14260 5250)"/><use xlink:href="#font_0_8" transform="matrix(88.88889 0 0-88.88889 14510 5250)"/><use xlink:href="#font_0_d" transform="matrix(88.88889 0 0-88.88889 15080 5250)"/><use xlink:href="#font_0_1e" transform="matrix(88.88889 0 0-88.88889 15330 5250)"/><use xlink:href="#font_0_12" transform="matrix(88.88889 0 0-88.88889 15790 5250)"/><use xlink:href="#font_0_29" transform="matrix(88.88889 0 0-88.88889 16320 5250)"/><use xlink:href="#font_0_f" transform="matrix(88.88889 0 0-88.88889 16530 5250)"/><use xlink:href="#font_0_7" transform="matrix(88.88889 0 0-88.88889 17050 5250)"/><use xlink:href="#font_0_37" transform="matrix(88.88889 0 0-88.88889 17820 5250)"/><use xlink:href="#font_0_9" transform="matrix(88.88889 0 0-88.88889 18320 5250)"/><use xlink:href="#font_0_25" transform="matrix(88.88889 0 0-88.88889 7860 6330)"/><use xlink:href="#font_0_2c" transform="matrix(88.88889 0 0-88.88889 8700 6330)"/><use xlink:href="#font_0_16" transform="matrix(88.88889 0 0-88.88889 8910 6330)"/><use xlink:href="#font_0_12" transform="matrix(88.88889 0 0-88.88889 9460 6330)"/><use xlink:href="#font_0_1e" transform="matrix(88.88889 0 0-88.88889 9990 6330)"/><use xlink:href="#font_0_d" transform="matrix(88.88889 0 0-88.88889 10480 6330)"/><use xlink:href="#font_0_11" transform="matrix(88.88889 0 0-88.88889 10730 6330)"/><use xlink:href="#font_0_7" transform="matrix(88.88889 0 0-88.88889 11060 6330)"/><use xlink:href="#font_0_33" transform="matrix(88.88889 0 0-88.88889 11840 6330)"/><use xlink:href="#font_0_10" transform="matrix(88.88889 0 0-88.88889 12340 6330)"/><use xlink:href="#font_0_a" transform="matrix(88.88889 0 0-88.88889 12550 6330)"/><use xlink:href="#font_0_1d" transform="matrix(88.88889 0 0-88.88889 13070 6330)"/><use xlink:href="#font_0_d" transform="matrix(88.88889 0 0-88.88889 13410 6330)"/><use xlink:href="#font_0_1f" transform="matrix(88.88889 0 0-88.88889 13660 6330)"/><use xlink:href="#font_0_d" transform="matrix(88.88889 0 0-88.88889 14250 6330)"/><use xlink:href="#font_0_1c" transform="matrix(88.88889 0 0-88.88889 14490 6330)"/><use xlink:href="#font_0_d" transform="matrix(88.88889 0 0-88.88889 15030 6330)"/><use xlink:href="#font_0_1e" transform="matrix(88.88889 0 0-88.88889 15280 6330)"/><use xlink:href="#font_0_12" transform="matrix(88.88889 0 0-88.88889 15750 6330)"/><use xlink:href="#font_0_29" transform="matrix(88.88889 0 0-88.88889 16280 6330)"/><use xlink:href="#font_0_f" transform="matrix(88.88889 0 0-88.88889 16490 6330)"/><use xlink:href="#font_0_7" transform="matrix(88.88889 0 0-88.88889 17000 6330)"/><use xlink:href="#font_0_37" transform="matrix(88.88889 0 0-88.88889 17770 6330)"/><use xlink:href="#font_0_9" transform="matrix(88.88889 0 0-88.88889 18280 6330)"/><use xlink:href="#font_0_5" transform="matrix(88.88889 0 0-88.88889 5040 7420)"/><use xlink:href="#font_0_15" transform="matrix(88.88889 0 0-88.88889 5720 7420)"/><use xlink:href="#font_0_2b" transform="matrix(88.88889 0 0-88.88889 6260 7420)"/><use xlink:href="#font_0_33" transform="matrix(88.88889 0 0-88.88889 6590 7420)"/><use xlink:href="#font_0_37" transform="matrix(88.88889 0 0-88.88889 7090 7420)"/><use xlink:href="#font_0_2c" transform="matrix(88.88889 0 0-88.88889 7610 7420)"/><use xlink:href="#font_0_2a" transform="matrix(88.88889 0 0-88.88889 7820 7420)"/><use xlink:href="#font_0_36" transform="matrix(88.88889 0 0-88.88889 8320 7420)"/><use xlink:href="#font_0_b" transform="matrix(88.88889 0 0-88.88889 8780 7420)"/><use xlink:href="#font_0_37" transform="matrix(88.88889 0 0-88.88889 9300 7420)"/><use xlink:href="#font_0_2c" transform="matrix(88.88889 0 0-88.88889 9820 7420)"/><use xlink:href="#font_0_b" transform="matrix(88.88889 0 0-88.88889 10030 7420)"/><use xlink:href="#font_0_21" transform="matrix(88.88889 0 0-88.88889 10550 7420)"/><use xlink:href="#font_0_d" transform="matrix(88.88889 0 0-88.88889 10790 7420)"/><use xlink:href="#font_0_1c" transform="matrix(88.88889 0 0-88.88889 11040 7420)"/><use xlink:href="#font_0_34" transform="matrix(88.88889 0 0-88.88889 11570 7420)"/><use xlink:href="#font_0_d" transform="matrix(88.88889 0 0-88.88889 12140 7420)"/><use xlink:href="#font_0_36" transform="matrix(88.88889 0 0-88.88889 12390 7420)"/><use xlink:href="#font_0_37" transform="matrix(88.88889 0 0-88.88889 12870 7420)"/><use xlink:href="#font_0_33" transform="matrix(88.88889 0 0-88.88889 13390 7420)"/><use xlink:href="#font_0_1e" transform="matrix(88.88889 0 0-88.88889 13890 7420)"/><use xlink:href="#font_0_2c" transform="matrix(88.88889 0 0-88.88889 14370 7420)"/><use xlink:href="#font_0_4" transform="matrix(88.88889 0 0-88.88889 14580 7420)"/><use xlink:href="#font_0_d" transform="matrix(88.88889 0 0-88.88889 14830 7420)"/><use xlink:href="#font_0_3" transform="matrix(88.88889 0 0-88.88889 15080 7420)"/><use xlink:href="#font_0_a" transform="matrix(88.88889 0 0-88.88889 15800 7420)"/><use xlink:href="#font_0_31" transform="matrix(88.88889 0 0-88.88889 16300 7420)"/><use xlink:href="#font_0_12" transform="matrix(88.88889 0 0-88.88889 16760 7420)"/><use xlink:href="#font_0_1e" transform="matrix(88.88889 0 0-88.88889 17290 7420)"/><use xlink:href="#font_0_12" transform="matrix(88.88889 0 0-88.88889 17750 7420)"/><use xlink:href="#font_0_2" transform="matrix(88.88889 0 0-88.88889 18280 7420)"/><use xlink:href="#font_0_1" transform="matrix(88.88889 0 0-88.88889 18750 7420)"/><use xlink:href="#font_0_d" transform="matrix(88.88889 0 0-88.88889 19240 7420)"/><use xlink:href="#font_0_0" transform="matrix(88.88889 0 0-88.88889 19490 7420)"/><use xlink:href="#font_0_18" transform="matrix(88.88889 0 0-88.88889 20030 7420)"/><use xlink:href="#font_0_2f" transform="matrix(88.88889 0 0-88.88889 20590 7420)"/><use xlink:href="#font_0_6" transform="matrix(88.88889 0 0-88.88889 21110 7420)"/></svg>
