<svg xmlns="http://www.w3.org/2000/svg" xmlns:xlink="http://www.w3.org/1999/xlink" version="1.1" viewBox="0 0 11444 25472"><path d="M0 0h11444v25472H0V0Z" fill="#fff"/><path d="M0 56C0 25 25 0 56 0h5610c31 0 56 25 56 56v1277c0 31-25 56-55 56H56a56 56 0 01-56-56V56Z" fill="#fff"/><clipPath id="a"><path d="M0 56C0 25 25 0 56 0h5610c31 0 56 25 56 56v1277c0 31-25 56-55 56H56a56 56 0 01-56-56V56Z" fill-rule="evenodd"/></clipPath><g clip-path="url(#a)"><path d="M56 0v28h5610v-56H57V0Zm5666 56h-28v1277h56V56h-28Zm-55 1333V1360H56v56h5610v-28ZM0 1333h28V56h-56v1277H0Zm56 56V1360a28 28 0 01-28-28h-56c0 46 38 84 84 84v-28Zm5666-56h-28c0 16-12 28-27 28v56c46 0 83-38 83-84h-28ZM5667 0v28c15 0 27 12 27 28h56c0-46-37-84-83-84V0ZM56 0v-28a83 83 0 00-84 84h56C28 40 40 28 56 28V0Z" fill-opacity=".1"/></g><path d="M5722 56c0-31 25-56 56-56h5610c32 0 56 25 56 56v1277c0 31-24 56-55 56H5778c-30 0-56-25-56-56V56Z" fill="#fff"/><clipPath id="b"><path d="M5722 56c0-31 25-56 56-56h5610c32 0 56 25 56 56v1277c0 31-24 56-55 56H5778c-30 0-56-25-56-56V56Z" fill-rule="evenodd"/></clipPath><g clip-path="url(#b)"><path d="M5778 0v28h5610v-56h-5610V0Zm5666 56h-27v1277h55V56h-28Zm-55 1333V1360H5778v56h5610v-28Zm-5667-56h28V56h-56v1277h28Zm56 56V1360a28 28 0 01-28-28h-56c0 46 38 84 84 84v-28Zm5666-56h-27c0 16-13 28-28 28v56c46 0 83-38 83-84h-28ZM11390 0v28c15 0 28 12 28 28h55c0-46-37-84-83-84V0ZM5778 0v-28a83 83 0 00-84 84h56c0-16 12-28 28-28V0Z" fill-opacity=".1"/></g><path d="M6056 833Zm173-316v316h-70V517h70Zm96 0v55h-260v-55h260Zm-11 316Zm133 5c-19 0-35-3-50-10a110 110 0 01-38-24 110 110 0 01-23-36 120 120 0 01-8-44v-9a150 150 0 01 28-86c10-11 22-20 36-26 14-6 30-9 48-9 16 0 31 3 44 8a100 100 0 01 33 24 100 100 0 01 20 36c5 14 8 30 8 47v28h-190v-44h123v-5c0-8-1-15-4-22-3-6-7-10-13-14a40 40 0 00-22-5 40 40 0 00-20 5 50 50 0 00-14 15c-3 6-5 13-7 22l-2 26v9a75 75 0 00 14 45c6 4 11 9 18 12a73 73 0 00 53-2c10-4 20-10 26-20l32 37c-5 7-12 13-20 20a110 110 0 01-31 16c-12 4-26 6-40 6Zm108-5Zm90-184v184h-69V600h64l4 50Zm-10 59h-17a137 137 0 01 25-83 81 81 0 01 66-30c11 0 21 0 30 4a50 50 0 01 24 15c7 7 12 17 15 28 4 12 5 26 5 42v150h-68v-150a50 50 0 00-4-23c-3-5-7-9-12-10a50 50 0 00-20-4 40 40 0 00-20 5c-5 3-10 7-13 12a60 60 0 00-8 20c-2 7-3 15-3 24Zm280 125ZM7010 500v333h-68V500h68Zm26 333ZM7130 600v234h-68V600h68Zm-72-61a30 30 0 01 10-24c7-7 16-10 28-10 10 0 20 3 27 10a30 30 0 01 10 24 30 30 0 01-10 24 40 40 0 01-27 10 40 40 0 01-28-10c-7-7-10-15-10-24Zm98 295Zm90-184v184h-69V600h64l4 50Zm-10 59H7220c0-18 3-33 7-47 4-14 10-26 18-36a81 81 0 01 67-30c10 0 20 0 30 4 9 3 17 8 23 15 7 7 12 17 15 28 4 12 6 26 6 42v150h-69v-150a50 50 0 00-4-23c-2-5-7-9-12-10a50 50 0 00-19-4 40 40 0 00-20 5 40 40 0 00-14 12 60 60 0 00-8 20c-2 7-3 15-3 24Zm170 125Zm90-333v333H7430V500h68Zm150 99-102 118L7490 770l-27-46 44-57 57-70h82Zm-72 234-66-108 49-38 95 146h-78Zm183 0Zm90-185v185H7780V600h64l4 49Zm-8 60h-17c0-16 2-31 6-45a120 120 0 01 17-36 80 80 0 01 68-33c10 0 20 2 29 5 8 3 16 8 22 14 6 7 10 16 14 26 3 10 5 23 5 38v156h-68V685c0-10 0-18-4-24a20 20 0 00-10-11c-5-2-10-3-18-3a39 39 0 00-33 17 60 60 0 00-8 20c-2 7-3 15-3 24Zm137-4-21 2c0-16 2-30 5-44a120 120 0 01 17-36 79 79 0 01 67-32c11 0 21 2 30 5 10 3 17 8 24 15s12 17 15 28c4 12 6 26 6 42v150H8050v-150c0-10-2-18-4-23a20 20 0 00-11-11c-5-2-10-3-17-3a38 38 0 00-32 17c-4 5-7 10-8 18-2 7-3 14-3 22Zm165 130Zm147-57v-100c0-7 0-14-3-19-2-5-5-9-10-12a44 44 0 00-34-1c-5 3-8 6-10 10a30 30 0 00-4 15h-68c0-10 2-20 7-30 5-9 12-17 20-24 10-7 20-12 33-16a140 140 0 01 90 4c15 6 27 15 35 27a80 80 0 01 13 46v98c0 15 0 26 2 34 2 8 4 15 7 20v4h-68c-3-6-6-15-7-25l-3-30Zm9-87v37h-33a60 60 0 00-20 3l-13 8a30 30 0 00-7 11c-2 5-2 10-2 14 0 5 0 10 3 13 2 4 6 7 10 10l14 2a46 46 0 00 37-17c3-5 5-10 5-14l17 28a170 170 0 01-10 18l-14 17a70 70 0 01-50 18 90 90 0 01-40-10 76 76 0 01-30-24c-7-10-10-23-10-37a80 80 0 01 6-32c5-10 12-18 20-25a142 142 0 01 83-20h34Zm192 143ZM8631 600v47h-140V600h140Zm-107-60h68v220c0 6 0 11 2 15 2 3 4 6 8 7l14 2a107 107 0 00 18-1v49a119 119 0 01-40 6c-14 0-27-3-38-7-10-5-18-13-24-23a80 80 0 01-8-40V540ZM8640 833Zm93-27 62-207h73l-95 270-8 19-14 20a70 70 0 01-21 14 80 80 0 01-33 6h-15l-14-4v-50h10a60 60 0 00 20-2c4-1 8-4 10-7 4-4 6-8 8-13l17-46Zm-20-207 48 167 9 71-46 3-84-241h73Zm154 234Zm94-333v333h-68V500h68Zm26 333Zm90-333v333H9010V500h68Zm150 99-102 118-54 54-27-46 44-57 57-70h82Zm-72 234L9090 725l49-38 95 146h-78Zm73 0Zm13-115v-4c0-17 2-33 7-48a101 101 0 01 57-63c14-6 30-9 48-9 18 0 34 3 48 10 14 5 26 14 35 24 10 10 17 24 22 38 5 15 7 30 7 48v4a150 150 0 01-7 48 110 110 0 01-22 38c-10 10-21 19-35 25-14 6-30 9-48 9-18 0-34-3-48-10a97 97 0 01-35-24 110 110 0 01-22-38c-5-15-7-30-7-48Zm67-4v4c0 10 1 18 3 26 1 8 4 16 7 22 4 6 8 10 14 14 6 3 13 5 20 5a40 40 0 00 22-5 40 40 0 00 13-14c4-6 6-14 8-22l2-26v-4c0-10 0-18-2-26s-4-15-8-21c-3-7-8-11-13-15a40 40 0 00-21-5c-9 0-15 2-21 5a40 40 0 00-14 15c-3 6-6 13-7 21-2 8-3 17-3 26Zm280 120Zm237-187v56a210 210 0 01-7 60 110 110 0 01-23 42c-10 11-20 20-34 25a125 125 0 01-80 3A92 92 0 01 9630 790a193 193 0 01-19-88v-56c0-23 2-43 7-60 5-17 13-30 23-42 10-10 20-19 34-24a120 120 0 01 44-8c13 0 25 2 36 5a92 92 0 01 53 42c6 10 10 23 14 37 4 15 5 31 5 50Zm-67 65v-74a177 177 0 00-7-49 40 40 0 00-9-13 36 36 0 00-25-10c-6 0-12 0-17 3s-10 7-13 13c-4 5-6 13-8 22-2 10-3 20-3 34v74c0 10 0 20 2 28l5 21c3 6 5 10 9 14l11 8 14 2a30 30 0 00 17-4c5-2 10-6 13-12 3-6 6-14 8-23 2-10 3-20 3-34Zm87 121Zm237-186v56c0 23-3 44-8 60a110 110 0 01-22 42c-10 11-21 20-34 25a125 125 0 01-80 3 92 92 0 01-53-42 120 120 0 01-15-38c-3-15-5-31-5-50v-56c0-23 3-43 8-60 5-17 12-30 22-42 10-10 21-19 34-24a120 120 0 01 44-8c13 0 25 2 36 5a92 92 0 01 53 42c7 10 11 23 15 37 3 15 5 31 5 50Zm-68 65v-74a177 177 0 00-7-49 40 40 0 00-8-13 36 36 0 00-25-10c-7 0-13 0-18 3s-10 7-13 13c-3 5-6 13-8 22l-2 34v74c0 10 0 20 2 28 0 8 3 15 5 21 2 6 5 10 8 14 4 3 7 6 12 8l14 2c6 0 12-1 17-4 5-2 9-6 12-12 4-6 7-14 8-23 2-10 3-20 3-34Zm88 121Zm236-186v56a210 210 0 01-7 60 110 110 0 01-23 42c-10 11-20 20-34 25a125 125 0 01-80 3 92 92 0 01-53-42 193 193 0 01-19-88v-56c0-23 2-43 7-60 5-17 13-30 23-42 10-10 20-19 34-24a120 120 0 01 44-8c13 0 25 2 36 5a92 92 0 01 53 42c6 10 10 23 14 37 4 15 5 31 5 50Zm-67 65v-74a177 177 0 00-7-49 40 40 0 00-9-13 36 36 0 00-25-10c-6 0-12 0-17 3s-10 7-13 13c-4 5-6 13-8 22-2 10-3 20-3 34v74c0 10 0 20 2 28l5 21c3 6 5 10 9 14l11 8 14 2a30 30 0 00 17-4c5-2 10-6 13-12 3-6 6-14 8-23 2-10 3-20 3-34Zm87 121Zm237-186v56c0 23-3 44-8 60a110 110 0 01-22 42c-10 11-21 20-34 25a125 125 0 01-80 3 92 92 0 01-53-42 150 150 0 01-15-38c-3-15-5-31-5-50v-56c0-23 3-43 8-60 5-17 12-30 22-42 10-10 21-19 34-24a120 120 0 01 44-8c13 0 25 2 36 5a92 92 0 01 53 42c7 10 11 23 15 37 3 15 5 31 5 50Zm-68 65v-74a177 177 0 00-7-49 40 40 0 00-8-13 36 36 0 00-25-10c-7 0-13 0-18 3s-10 7-13 13c-3 5-6 13-8 22l-2 34v74c0 10 0 20 2 28 0 8 3 15 5 21 2 6 5 10 8 14 4 3 7 6 12 8l14 2c6 0 12-1 17-4 5-2 9-6 12-12 4-6 7-14 8-23 2-10 3-20 3-34Zm88 121Zm239-52v52h-218V790l101-108a308 308 0 00 36-52 52 52 0 00-1-43c-3-7-7-12-13-15-5-4-12-5-20-5-9 0-16 2-23 6-6 5-10 10-14 19-3 8-5 17-5 27h-68a102 102 0 01 53-90c16-10 36-15 58-15 23 0 42 3 58 10a84 84 0 01 47 80 131 131 0 01-20 60 734 734 0 01-53 62l-48 56h130Zm17 52Zm244-120v52H10890l-4-41 130-207h53l-58 97-60 99h166Zm-34-196v316h-67V517h67Z"/><use xlink:href="#font_2_e" transform="matrix(44.44444 0 0-44.44444 6056 833)"/><use xlink:href="#font_2_7" transform="matrix(44.44444 0 0-44.44444 6314 833)"/><use xlink:href="#font_2_d" transform="matrix(44.44444 0 0-44.44444 6554 833)"/><use xlink:href="#font_2_c" transform="matrix(44.44444 0 0-44.44444 6804 833)"/><use xlink:href="#font_2_a" transform="matrix(44.44444 0 0-44.44444 6915 833)"/><use xlink:href="#font_2_9" transform="matrix(44.44444 0 0-44.44444 7035 833)"/><use xlink:href="#font_2_d" transform="matrix(44.44444 0 0-44.44444 7155 833)"/><use xlink:href="#font_2_5" transform="matrix(44.44444 0 0-44.44444 7405 833)"/><use xlink:href="#font_2_c" transform="matrix(44.44444 0 0-44.44444 7645 833)"/><use xlink:href="#font_2_b" transform="matrix(44.44444 0 0-44.44444 7755 833)"/><use xlink:href="#font_2_8" transform="matrix(44.44444 0 0-44.44444 8139 833)"/><use xlink:href="#font_2_c" transform="matrix(44.44444 0 0-44.44444 8376 833)"/><use xlink:href="#font_2_4" transform="matrix(44.44444 0 0-44.44444 8486 833)"/><use xlink:href="#font_2_3" transform="matrix(44.44444 0 0-44.44444 8638 833)"/><use xlink:href="#font_2_a" transform="matrix(44.44444 0 0-44.44444 8865 833)"/><use xlink:href="#font_2_5" transform="matrix(44.44444 0 0-44.44444 8985 833)"/><use xlink:href="#font_2_2" transform="matrix(44.44444 0 0-44.44444 9225 833)"/><use xlink:href="#font_2_c" transform="matrix(44.44444 0 0-44.44444 9475 833)"/><use xlink:href="#font_2_1" transform="matrix(44.44444 0 0-44.44444 9586 833)"/><use xlink:href="#font_2_1" transform="matrix(44.44444 0 0-44.44444 9842 833)"/><use xlink:href="#font_2_1" transform="matrix(44.44444 0 0-44.44444 10098 833)"/><use xlink:href="#font_2_1" transform="matrix(44.44444 0 0-44.44444 10354 833)"/><use xlink:href="#font_2_6" transform="matrix(44.44444 0 0-44.44444 10610 833)"/><use xlink:href="#font_2_0" transform="matrix(44.44444 0 0-44.44444 10866 833)"/><path d="M389 861Zm173-316v316h-70V545h70Zm96 0V600h-260v-55h260Zm-10 316Zm132 4c-18 0-35-3-50-8a110 110 0 01-37-25 110 110 0 01-24-36 120 120 0 01-8-44v-9c0-17 3-33 8-48s12-28 21-39c10-10 22-19 35-25 14-6 30-10 48-10 17 0 31 4 44 10 14 5 25 12 33 22a100 100 0 01 20 37c6 14 8 30 8 47v28h-190V720h124v-5a50 50 0 00-5-22c-3-6-7-10-13-14a40 40 0 00-21-5c-9 0-16 1-21 5-6 3-10 8-13 15-3 6-6 13-7 22-2 8-2 17-2 26v9a60 60 0 00 14 44c5 5 10 10 18 12 6 3 14 5 23 5 10 0 20-2 30-6 10-4 18-10 25-20l32 37c-5 7-11 13-20 20a110 110 0 01-30 15c-13 4-26 6-42 6Zm108-4Zm90-185v185H910V626h63l4 50Zm-10 60h-16c0-18 2-34 6-48a80 80 0 01 19-35 81 81 0 01 66-31c10 0 20 2 30 5s17 8 23 15c7 7 12 16 16 28 3 11 5 25 5 42v150h-68v-150a50 50 0 00-5-23c-2-5-6-9-12-11a50 50 0 00-19-3 40 40 0 00-20 4c-6 4-10 8-14 13a60 60 0 00-8 20c-2 7-2 15-2 23ZM1250 860Zm94-333V860h-68V528h68ZM1370 860Zm94-235V860h-68V626h68Zm-72-60a30 30 0 01 10-25c8-6 17-10 28-10a40 40 0 01 27 10 30 30 0 01 11 25 30 30 0 01-10 24 40 40 0 01-28 9 40 40 0 01-27-10c-7-6-10-14-10-23ZM1490 860Zm89-185V860H1510V626h63l5 50Zm-10 60h-16c0-18 2-34 6-48a90 90 0 01 19-35 81 81 0 01 66-31c10 0 20 2 30 5s17 8 23 15c7 7 12 16 16 28 3 11 5 25 5 42v150H1650v-150a50 50 0 00-4-23c-3-5-7-9-13-11a50 50 0 00-19-3 40 40 0 00-20 4c-6 4-10 8-14 13a60 60 0 00-8 20c-2 7-2 15-2 23ZM1740 860Zm91-333V860h-68V528h68Zm150 98-103 118-54 55-27-46 44-57 58-70h81ZM1909 860l-66-108 48-38 95 146h-77Zm183 0Zm90-185V860h-68V626h64l4 50Zm-8 60h-18c0-17 2-32 6-45 4-14 10-26 18-37a80 80 0 01 68-32c10 0 20 2 28 5 9 3 16 8 22 14 6 7 11 15 14 26 4 10 5 23 5 37V860H2250V713a70 70 0 00-4-24 20 20 0 00-11-11c-5-2-10-3-17-3a39 39 0 00-33 17 60 60 0 00-9 20c-2 7-2 15-2 23Zm136-4-21 2c0-16 2-30 6-45 3-13 10-25 17-35a79 79 0 01 67-32c10 0 20 2 30 5 9 3 17 8 23 15 7 7 12 17 16 28 3 12 5 26 5 42v150h-68v-150c0-10-1-18-4-23a20 20 0 00-10-11c-5-2-11-3-18-3A38 38 0 00 2320 690a50 50 0 00-8 18c-2 7-3 15-3 23Zm166 130Zm147-57v-100c0-8-1-14-4-19-2-5-5-9-10-12-4-3-10-4-18-4-6 0-11 1-16 3a20 20 0 00-10 10 30 30 0 00-4 14h-68a67 67 0 01 28-53c9-7 20-12 32-16a140 140 0 01 91 3c14 6 26 16 34 28a80 80 0 01 13 46v98c0 14 0 25 2 34 2 8 4 14 8 20v4H2630c-3-7-5-15-7-25l-2-30Zm8-87v37h-33a60 60 0 00-20 3l-13 8a30 30 0 00-7 11l-2 14c0 5 1 10 3 13 3 4 6 7 10 9 4 2 9 3 14 3a46 46 0 00 37-18c4-5 6-10 6-14l16 28a170 170 0 01-10 19c-3 6-8 11-14 17a70 70 0 01-50 17 90 90 0 01-40-8 76 76 0 01-30-25 76 76 0 01-4-70c5-10 12-17 20-24 10-7 21-12 35-15 14-3 30-5 48-5h34ZM2822 860Zm142-235v48h-139v-48h140Zm-107-58h68v220c0 6 0 11 2 15 2 3 4 5 8 7l14 2a107 107 0 00 18-2v50a119 119 0 01-40 5c-14 0-27-2-37-7-10-4-19-12-25-22-5-10-8-24-8-40V567ZM2974 860Zm94-27 61-208h73l-94 270-9 20c-3 6-7 13-13 19-6 6-13 11-22 15a80 80 0 01-33 6l-15-1-14-3v-50h10a60 60 0 00 20-2c5-2 8-4 11-8 3-3 5-7 7-12l18-46Zm-20-208 48 167 8 72-46 3-84-242h73ZM3200 861Zm94-333V860h-68V528h68Zm27 333Zm90-333V860h-68V528h68Zm150 98-103 118-54 55-27-46 44-57 58-70h81ZM3490 861l-66-108 48-38 95 146H3490Zm72 0Zm13-115v-4c0-18 2-34 7-48a103 103 0 01 57-63 120 120 0 01 96 0 90 90 0 01 35 25c10 10 17 23 22 38 5 14 7 30 7 48v4a150 150 0 01-7 48 110 110 0 01-22 38c-10 10-20 19-35 25a142 142 0 01-96 0 97 97 0 01-35-25 110 110 0 01-22-38c-5-15-7-30-7-48Zm68-4v4c0 10 0 18 2 26s4 15 8 21c3 6 8 11 13 15 6 3 13 5 21 5a40 40 0 00 21-5 40 40 0 00 14-15c3-6 6-13 7-20l3-27v-4c0-10-1-18-3-26-1-8-4-15-7-22-4-6-8-10-14-14a40 40 0 00-21-5c-8 0-15 1-20 5-6 3-10 8-14 14-4 7-6 14-8 22l-2 26Zm280 120ZM4160 674V730c0 23-3 43-8 60a110 110 0 01-22 42c-10 11-21 20-35 25-13 5-27 7-43 7-13 0-25-1-36-5a92 92 0 01-53-41c-7-10-12-24-15-38-3-15-5-31-5-50v-56c0-24 2-44 8-60 5-17 12-31 22-42 10-11 20-20 34-24a120 120 0 01 44-8c13 0 25 1 36 5a92 92 0 01 53 41c6 11 11 24 15 38 3 15 5 31 5 50Zm-68 65v-74a177 177 0 00-7-49 40 40 0 00-8-13 36 36 0 00-25-10c-7 0-13 0-18 3s-10 7-13 13c-3 5-6 13-8 22l-2 34V740l1 28c2 8 3 15 6 20 2 6 5 11 8 15 3 3 7 6 12 7a37 37 0 00 31-1c4-3 9-7 12-12 4-6 6-14 8-23 2-10 3-20 3-34ZM4180 860Zm236-186V730c0 23-2 43-8 60a110 110 0 01-22 42c-10 11-20 20-34 25-13 5-28 7-44 7-13 0-25-1-36-5A92 92 0 01 4220 820a167 167 0 01-20-88v-56c0-24 3-44 8-60a120 120 0 01 22-42c10-11 22-20 35-24a120 120 0 01 44-8c13 0 25 1 36 5a92 92 0 01 52 41c7 11 12 24 15 38 3 15 5 31 5 50ZM4350 740v-74a177 177 0 00-8-49 40 40 0 00-8-13 36 36 0 00-25-10c-7 0-12 0-17 3s-10 7-13 13c-4 5-6 13-8 22-2 10-3 20-3 34V740c0 10 0 20 2 28l5 20c2 6 5 11 9 15 3 3 7 6 11 7a37 37 0 00 31-1c5-3 10-7 13-12 3-6 6-14 8-23 2-10 3-20 3-34Zm87 121Zm237-186V730c0 23-3 43-8 60a110 110 0 01-22 42c-10 11-21 20-34 25-14 5-28 7-44 7-13 0-25-1-36-5a92 92 0 01-53-41c-7-10-12-24-15-38-3-15-5-31-5-50v-56c0-24 2-44 8-60 5-17 12-31 22-42 10-11 21-20 34-24a120 120 0 01 44-8c13 0 25 1 36 5a92 92 0 01 53 41c6 11 11 24 15 38 3 15 5 31 5 50Zm-68 65v-74a177 177 0 00-7-49 40 40 0 00-8-13 36 36 0 00-25-10c-7 0-13 0-18 3s-10 7-13 13c-3 5-6 13-8 22l-2 34V740l1 28c2 8 3 15 6 20 2 6 5 11 8 15 3 3 7 6 12 7a37 37 0 00 31-1c5-3 9-7 12-12 4-6 6-14 8-23 2-10 3-20 3-34Zm88 121ZM4930 675V730c0 23-2 43-8 60a110 110 0 01-22 42c-10 11-20 20-34 25-13 5-28 7-44 7-13 0-25-1-36-5a92 92 0 01-53-41 167 167 0 01-20-88v-56c0-24 3-44 8-60a120 120 0 01 22-42c10-11 22-20 35-24a120 120 0 01 44-8c13 0 25 1 36 5a92 92 0 01 53 41 188 188 0 01 19 88Zm-67 65v-74a177 177 0 00-8-49 40 40 0 00-8-13 36 36 0 00-25-10c-7 0-12 0-17 3s-10 7-13 13c-4 5-6 13-8 22-2 10-3 20-3 34V740c0 10 0 20 2 28l5 20c2 6 5 11 9 15 3 3 7 6 11 7a37 37 0 00 31-1c5-3 10-7 13-12 3-6 6-14 8-23 2-10 3-20 3-34Zm87 121Zm240-53v53h-220v-45l103-108a308 308 0 00 35-52 56 56 0 00 0-43c-3-6-8-11-13-14a40 40 0 00-43 1c-6 5-11 10-15 19a70 70 0 00-5 26h-68a102 102 0 01 53-90 110 110 0 01 58-14c23 0 42 3 58 10 15 8 27 18 35 31a105 105 0 01-8 110 734 734 0 01-53 62l-48 54h130Zm17 53Zm243-120v52h-227l-4-41 130-207h53l-58 96-59 100H5450Zm-33-196v316h-68V545h68Z"/><use xlink:href="#font_2_e" transform="matrix(44.44444 0 0-44.44444 389 861)"/><use xlink:href="#font_2_7" transform="matrix(44.44444 0 0-44.44444 647 861)"/><use xlink:href="#font_2_d" transform="matrix(44.44444 0 0-44.44444 888 861)"/><use xlink:href="#font_2_c" transform="matrix(44.44444 0 0-44.44444 1138 861)"/><use xlink:href="#font_2_a" transform="matrix(44.44444 0 0-44.44444 1248 861)"/><use xlink:href="#font_2_9" transform="matrix(44.44444 0 0-44.44444 1368 861)"/><use xlink:href="#font_2_d" transform="matrix(44.44444 0 0-44.44444 1488 861)"/><use xlink:href="#font_2_5" transform="matrix(44.44444 0 0-44.44444 1738 861)"/><use xlink:href="#font_2_c" transform="matrix(44.44444 0 0-44.44444 1978 861)"/><use xlink:href="#font_2_b" transform="matrix(44.44444 0 0-44.44444 2089 861)"/><use xlink:href="#font_2_8" transform="matrix(44.44444 0 0-44.44444 2472 861)"/><use xlink:href="#font_2_c" transform="matrix(44.44444 0 0-44.44444 2710 861)"/><use xlink:href="#font_2_4" transform="matrix(44.44444 0 0-44.44444 2820 861)"/><use xlink:href="#font_2_3" transform="matrix(44.44444 0 0-44.44444 2971 861)"/><use xlink:href="#font_2_a" transform="matrix(44.44444 0 0-44.44444 3198 861)"/><use xlink:href="#font_2_5" transform="matrix(44.44444 0 0-44.44444 3318 861)"/><use xlink:href="#font_2_2" transform="matrix(44.44444 0 0-44.44444 3558 861)"/><use xlink:href="#font_2_c" transform="matrix(44.44444 0 0-44.44444 3808 861)"/><use xlink:href="#font_2_1" transform="matrix(44.44444 0 0-44.44444 3919 861)"/><use xlink:href="#font_2_1" transform="matrix(44.44444 0 0-44.44444 4175 861)"/><use xlink:href="#font_2_1" transform="matrix(44.44444 0 0-44.44444 4430 861)"/><use xlink:href="#font_2_1" transform="matrix(44.44444 0 0-44.44444 4687 861)"/><use xlink:href="#font_2_6" transform="matrix(44.44444 0 0-44.44444 4943 861)"/><use xlink:href="#font_2_0" transform="matrix(44.44444 0 0-44.44444 5199 861)"/></svg>
